<svg width="50" height="25" viewBox="0 0 800 400" fill="none" xmlns="http://www.w3.org/2000/svg">
<path d="M400 0H750C777.614 0 800 22.3858 800 50V350C800 377.614 777.614 400 750 400H400V0Z" fill="#6B7FED"/>
<path d="M0 50C0 22.3858 22.3858 0 50 0H400V400H50C22.3858 400 0 377.614 0 350V50Z" fill="#ED9F6B"/>
<path d="M122.963 309V90.8182H209.043C225.591 90.8182 239.689 93.9787 251.337 100.3C262.984 106.55 271.862 115.25 277.97 126.401C284.149 137.48 287.239 150.264 287.239 164.753C287.239 179.241 284.114 192.026 277.864 203.105C271.614 214.185 262.558 222.814 250.697 228.993C238.908 235.172 224.632 238.261 207.871 238.261H153.006V201.294H200.413C209.291 201.294 216.607 199.767 222.359 196.713C228.183 193.588 232.516 189.291 235.357 183.822C238.268 178.283 239.724 171.926 239.724 164.753C239.724 157.509 238.268 151.187 235.357 145.79C232.516 140.321 228.183 136.095 222.359 133.112C216.536 130.058 209.149 128.531 200.2 128.531H169.092V309H122.963Z" fill="white"/>
<path d="M122.963 309V90.8182H209.043C225.591 90.8182 239.689 93.9787 251.337 100.3C262.984 106.55 271.862 115.25 277.97 126.401C284.149 137.48 287.239 150.264 287.239 164.753C287.239 179.241 284.114 192.026 277.864 203.105C271.614 214.185 262.558 222.814 250.697 228.993C238.908 235.172 224.632 238.261 207.871 238.261H153.006V201.294H200.413C209.291 201.294 216.607 199.767 222.359 196.713C228.183 193.588 232.516 189.291 235.357 183.822C238.268 178.283 239.724 171.926 239.724 164.753C239.724 157.509 238.268 151.187 235.357 145.79C232.516 140.321 228.183 136.095 222.359 133.112C216.536 130.058 209.149 128.531 200.2 128.531H169.092V309H122.963Z" fill="white"/>
<circle cx="600" cy="200" r="75" fill="white"/>
</svg>
