<svg width="64" height="10" viewBox="0 0 1178 225" fill="none" xmlns="http://www.w3.org/2000/svg">
<path d="M0 221.165V2.98273H94.1761C110.369 2.98273 124.538 6.17875 136.683 12.5708C148.828 18.9628 158.274 27.9472 165.021 39.5239C171.768 51.1006 175.142 64.6305 175.142 80.1134C175.142 95.7384 171.662 109.268 164.702 120.703C157.813 132.138 148.118 140.944 135.618 147.123C123.189 153.302 108.665 156.392 92.0455 156.392H35.7955V110.369H80.1136C87.0739 110.369 93.0043 109.162 97.9048 106.747C102.876 104.261 106.676 100.746 109.304 96.2001C112.003 91.6546 113.352 86.2924 113.352 80.1134C113.352 73.8634 112.003 68.5367 109.304 64.1333C106.676 59.6589 102.876 56.2498 97.9048 53.906C93.0043 51.4912 87.0739 50.2839 80.1136 50.2839H59.233V221.165H0ZM305.114 89.9146V134.233H202.841V89.9146H305.114ZM542.951 84.8009H482.866C482.44 79.8293 481.303 75.3194 479.457 71.2711C477.681 67.2228 475.195 63.7427 471.999 60.8307C468.874 57.8478 465.075 55.5751 460.6 54.0126C456.126 52.379 451.048 51.5623 445.366 51.5623C435.423 51.5623 427.006 53.977 420.117 58.8066C413.299 63.6361 408.114 70.5608 404.563 79.5807C401.083 88.6006 399.343 99.4316 399.343 112.074C399.343 125.426 401.119 136.612 404.67 145.632C408.292 154.581 413.512 161.328 420.33 165.873C427.148 170.348 435.352 172.585 444.94 172.585C450.408 172.585 455.309 171.91 459.641 170.561C463.974 169.14 467.738 167.116 470.934 164.488C474.13 161.861 476.722 158.7 478.711 155.007C480.771 151.243 482.156 147.017 482.866 142.329L542.951 142.755C542.241 151.988 539.648 161.399 535.174 170.987C530.7 180.504 524.343 189.311 516.104 197.407C507.937 205.433 497.816 211.896 485.742 216.797C473.668 221.697 459.641 224.148 443.661 224.148C423.633 224.148 405.664 219.851 389.755 211.257C373.917 202.663 361.381 190.021 352.148 173.331C342.987 156.64 338.406 136.221 338.406 112.074C338.406 87.7839 343.093 67.3293 352.468 50.71C361.843 34.0197 374.485 21.4131 390.394 12.8904C406.303 4.29664 424.059 -0.000230074 443.661 -0.000230074C457.44 -0.000230074 470.117 1.88187 481.694 5.64607C493.271 9.41028 503.427 14.9145 512.163 22.1589C520.898 29.3322 527.93 38.1745 533.256 48.6859C538.583 59.1972 541.815 71.2356 542.951 84.8009ZM619.762 221.165H555.842L627.859 2.98273H708.825L780.842 221.165H716.921L669.194 63.068H667.489L619.762 221.165ZM607.83 135.085H728.001V179.403H607.83V135.085ZM801.855 221.165V2.98273H896.458C913.077 2.98273 927.033 5.21994 938.326 9.69438C949.689 14.1688 958.248 20.4898 964 28.6574C969.824 36.8251 972.736 46.4486 972.736 57.5282C972.736 65.5537 970.961 72.8691 967.409 79.4742C963.929 86.0793 959.029 91.6191 952.708 96.0935C946.387 100.497 939 103.551 930.549 105.255V107.386C939.924 107.741 948.446 110.121 956.117 114.524C963.787 118.856 969.895 124.858 974.441 132.528C978.986 140.128 981.259 149.076 981.259 159.375C981.259 171.307 978.134 181.924 971.884 191.228C965.705 200.532 956.898 207.848 945.463 213.174C934.029 218.501 920.392 221.165 904.554 221.165H801.855ZM861.088 173.863H888.787C898.73 173.863 906.188 172.017 911.159 168.324C916.131 164.559 918.617 159.02 918.617 151.704C918.617 146.591 917.445 142.258 915.101 138.707C912.757 135.156 909.419 132.457 905.087 130.611C900.826 128.764 895.676 127.841 889.64 127.841H861.088V173.863ZM861.088 91.193H885.378C890.563 91.193 895.144 90.3762 899.121 88.7427C903.098 87.1092 906.188 84.7654 908.39 81.7114C910.662 78.5864 911.799 74.7867 911.799 70.3123C911.799 63.5651 909.384 58.416 904.554 54.8648C899.725 51.2427 893.617 49.4316 886.23 49.4316H861.088V91.193ZM1002.25 221.165V2.98273H1096.42C1112.62 2.98273 1126.78 6.17875 1138.93 12.5708C1151.07 18.9628 1160.52 27.9472 1167.27 39.5239C1174.01 51.1006 1177.39 64.6305 1177.39 80.1134C1177.39 95.7384 1173.91 109.268 1166.95 120.703C1160.06 132.138 1150.36 140.944 1137.86 147.123C1125.44 153.302 1110.91 156.392 1094.29 156.392H1038.04V110.369H1082.36C1089.32 110.369 1095.25 109.162 1100.15 106.747C1105.12 104.261 1108.92 100.746 1111.55 96.2001C1114.25 91.6546 1115.6 86.2924 1115.6 80.1134C1115.6 73.8634 1114.25 68.5367 1111.55 64.1333C1108.92 59.6589 1105.12 56.2498 1100.15 53.906C1095.25 51.4912 1089.32 50.2839 1082.36 50.2839H1061.48V221.165H1002.25Z" fill="url(#paint0_linear_1181_36)"/>
<defs>
<linearGradient id="paint0_linear_1181_36" x1="-14.502" y1="3.16455" x2="1183.26" y2="232.844" gradientUnits="userSpaceOnUse">
<stop stop-color="#ED9F6B"/>
<stop offset="1" stop-color="#6B7FED"/>
</linearGradient>
</defs>
</svg>
